<svg width="16" height="16" viewBox="0 0 16 16" fill="none" xmlns="http://www.w3.org/2000/svg">
<rect width="16" height="16" fill="white"/>
<path d="M8.18669 12.6574L10.8733 11.9337M12.0352 10.7259L12.8412 7.46928M5.45544 11.9289L3.53903 9.99306M12.2614 5.65096L10.4704 3.84175M3.07997 8.19296L3.88594 4.93638M3.9796 8.79871L5.05423 8.25594M6.5318 11.5063L6.35269 8.97342M7.73306 11.7444L8.84351 10.2971M11.0105 10.9728L10.1866 10.1768M9.52239 8.41776V7.62171M7.4956 6.97968L8.57023 6.61784M10.7224 6.60855H12.0299M7.45431 8.25649L8.51103 8.79926M6.8659 6.14635L8.29874 3.9753M5.20293 4.4513L8.87457 5.98913M4.83845 4.88438L5.73397 6.33174M9.34263 4.24113L9.45009 5.50758M5.17468 3.72078L7.68214 2.99709M8.23284 13.1217C8.23284 14.021 7.51115 14.75 6.6209 14.75C5.73065 14.75 5.00896 14.021 5.00896 13.1217C5.00896 12.2224 5.73065 11.4934 6.6209 11.4934C7.51115 11.4934 8.23284 12.2224 8.23284 13.1217ZM10.9552 2.62829C10.9552 3.52757 10.2335 4.25658 9.34328 4.25658C8.45303 4.25658 7.73134 3.52757 7.73134 2.62829C7.73134 1.72901 8.45303 1 9.34328 1C10.2335 1 10.9552 1.72901 10.9552 2.62829ZM12.7463 11.5839C12.7463 12.1334 12.3052 12.5789 11.7612 12.5789C11.2172 12.5789 10.7761 12.1334 10.7761 11.5839C10.7761 11.0343 11.2172 10.5888 11.7612 10.5888C12.3052 10.5888 12.7463 11.0343 12.7463 11.5839ZM3.97015 9.23191C3.97015 9.78147 3.52912 10.227 2.98507 10.227C2.44103 10.227 2 9.78147 2 9.23191C2 8.68235 2.44103 8.23684 2.98507 8.23684C3.52912 8.23684 3.97015 8.68235 3.97015 9.23191ZM5.22388 4.07566C5.22388 4.62522 4.78285 5.07072 4.23881 5.07072C3.69476 5.07072 3.25373 4.62522 3.25373 4.07566C3.25373 3.5261 3.69476 3.08059 4.23881 3.08059C4.78285 3.08059 5.22388 3.5261 5.22388 4.07566ZM14 6.51809C14 7.06765 13.559 7.51316 13.0149 7.51316C12.4709 7.51316 12.0299 7.06765 12.0299 6.51809C12.0299 5.96853 12.4709 5.52303 13.0149 5.52303C13.559 5.52303 14 5.96853 14 6.51809ZM10.597 6.51809C10.597 7.06765 10.156 7.51316 9.61194 7.51316C9.0679 7.51316 8.62687 7.06765 8.62687 6.51809C8.62687 5.96853 9.0679 5.52303 9.61194 5.52303C10.156 5.52303 10.597 5.96853 10.597 6.51809ZM10.4179 9.41283C10.4179 9.96239 9.97688 10.4079 9.43284 10.4079C8.88879 10.4079 8.44776 9.96239 8.44776 9.41283C8.44776 8.86327 8.88879 8.41776 9.43284 8.41776C9.97688 8.41776 10.4179 8.86327 10.4179 9.41283ZM7.55224 7.51316C7.55224 8.26256 6.95083 8.87007 6.20896 8.87007C5.46708 8.87007 4.86567 8.26256 4.86567 7.51316C4.86567 6.76376 5.46708 6.15625 6.20896 6.15625C6.95083 6.15625 7.55224 6.76376 7.55224 7.51316Z" stroke="url(#paint0_linear_4_79)" stroke-width="0.8"/>
<defs>
<linearGradient id="paint0_linear_4_79" x1="2" y1="1" x2="14.802" y2="13.9576" gradientUnits="userSpaceOnUse">
<stop stop-color="#0E9EFF"/>
<stop offset="1" stop-color="#05FFF2"/>
</linearGradient>
</defs>
</svg>
